<svg xmlns="http://www.w3.org/2000/svg"  viewBox="0 0 64 64" width="96px" height="96px"><path d="M53.29 16.4c1.085.844 1.71 2.142 1.71 3.517v29.155c0 1.104-.908 1.901-1.892 1.901-.319 0-.647-.084-.954-.269C50.013 49.413 46.801 48 43 48c-2.91 0-5.574.922-7.552 1.875C34.775 50.199 34 49.71 34 48.963l0-31.4c0-.39.149-.758.418-1.04C35.432 15.462 38.292 13 43 13 47.98 13 51.41 14.938 53.29 16.4zM30 17.563l0 31.411c0 .747-.774 1.236-1.447.912C26.565 48.929 23.892 48 21 48c-3.801 0-7.013 1.413-9.154 2.705-.307.185-.634.269-.954.269C9.908 50.974 9 50.176 9 49.072V19.917c0-1.375.625-2.673 1.71-3.517C12.59 14.938 16.02 13 21 13c4.707 0 7.568 2.462 8.582 3.523C29.851 16.804 30 17.173 30 17.563z"/></svg>