<svg width="15" height="15" viewBox="0 0 15 15" fill="none" xmlns="http://www.w3.org/2000/svg">
<g clip-path="url(#clip0_59_59)">
<path d="M14.0625 0.46875H12.1875C11.9531 0.46875 11.7656 0.65625 11.7188 0.84375L11.25 3.75H7.5H0.9375C0.796875 3.75 0.65625 3.79688 0.5625 3.89062C0.46875 4.03125 0.46875 4.17188 0.46875 4.3125L1.40625 9.9375C1.45312 10.125 1.64062 10.3125 1.875 10.3125H7.5H10.7344C10.9688 10.3125 11.1562 10.125 11.2031 9.9375L12.0938 4.3125L12.5625 1.45312H14.0625C14.2969 1.45312 14.5312 1.21875 14.5312 0.984375C14.5312 0.75 14.2969 0.46875 14.0625 0.46875Z" fill="white"/>
<path d="M3.28125 14.5312C4.31678 14.5312 5.15625 13.6918 5.15625 12.6562C5.15625 11.6207 4.31678 10.7812 3.28125 10.7812C2.24572 10.7812 1.40625 11.6207 1.40625 12.6562C1.40625 13.6918 2.24572 14.5312 3.28125 14.5312Z" fill="white"/>
<path d="M9.375 14.5312C10.4105 14.5312 11.25 13.6918 11.25 12.6562C11.25 11.6207 10.4105 10.7812 9.375 10.7812C8.33947 10.7812 7.5 11.6207 7.5 12.6562C7.5 13.6918 8.33947 14.5312 9.375 14.5312Z" fill="white"/>
</g>
<defs>
<clipPath id="clip0_59_59">
<rect width="15" height="15" fill="white"/>
</clipPath>
</defs>
</svg>
