<svg width="24" height="24" viewBox="0 0 24 24" fill="none" xmlns="http://www.w3.org/2000/svg">
<path d="M12 1.95001C5.95875 1.95001 0.989998 6.20439 0.989998 11.52C0.989998 14.6044 2.7 17.325 5.28 19.065C5.27625 19.1681 5.28 19.3275 5.145 19.83C4.97812 20.4506 4.64812 21.33 3.96 22.305L3.465 22.995L4.32 23.01C7.28437 23.0231 9.00187 21.075 9.27 20.76C10.1456 20.955 11.0569 21.09 12 21.09C18.0394 21.09 23.01 16.8356 23.01 11.52C23.01 6.20439 18.0394 1.95001 12 1.95001ZM12 2.85001C17.6231 2.85001 22.11 6.76314 22.11 11.52C22.11 16.2769 17.6231 20.19 12 20.19C11.0381 20.19 10.1044 20.0738 9.225 19.86L8.955 19.8L8.775 20.025C8.775 20.025 7.3875 21.5888 5.175 21.96C5.57437 21.2438 5.87812 20.5781 6.015 20.07C6.20625 19.3594 6.21 18.87 6.21 18.87V18.63L6 18.495C3.49125 16.905 1.89 14.3719 1.89 11.52C1.89 6.76314 6.375 2.85001 12 2.85001Z" fill="#4B53B2"/>
</svg>
