<svg width="28" height="28" viewBox="0 0 28 28" fill="none" xmlns="http://www.w3.org/2000/svg">
<path d="M14 23.7145L12.7123 22.5569C10.7783 20.8024 9.17904 19.2948 7.91437 18.034C6.64971 16.7731 5.64754 15.6508 4.90787 14.6673C4.16821 13.684 3.65147 12.7869 3.35767 11.9761C3.06367 11.1655 2.91667 10.3429 2.91667 9.50832C2.91667 7.85263 3.47492 6.46643 4.59142 5.34974C5.70811 4.23324 7.0943 3.67499 8.75 3.67499C9.7685 3.67499 10.731 3.91318 11.6375 4.38957C12.544 4.86596 13.3315 5.54914 14 6.43911C14.6685 5.54914 15.456 4.86596 16.3625 4.38957C17.269 3.91318 18.2315 3.67499 19.25 3.67499C20.9057 3.67499 22.2919 4.23324 23.4086 5.34974C24.5251 6.46643 25.0833 7.85263 25.0833 9.50832C25.0833 10.3429 24.9363 11.1655 24.6423 11.9761C24.3485 12.7869 23.8318 13.684 23.0921 14.6673C22.3525 15.6508 21.3521 16.7731 20.0912 18.034C18.8304 19.2948 17.2292 20.8024 15.2877 22.5569L14 23.7145ZM14 21.35C15.8667 19.6704 17.4028 18.2307 18.6083 17.031C19.8139 15.8315 20.7667 14.7893 21.4667 13.9046C22.1667 13.0199 22.6528 12.2342 22.925 11.5477C23.1972 10.8613 23.3333 10.1815 23.3333 9.50832C23.3333 8.34165 22.9444 7.36943 22.1667 6.59165C21.3889 5.81388 20.4167 5.42499 19.25 5.42499C18.3287 5.42499 17.4772 5.68632 16.6956 6.20899C15.9141 6.73185 15.2953 7.45917 14.8391 8.39095H13.1609C12.6971 7.45158 12.0764 6.72242 11.2986 6.20345C10.5208 5.68447 9.67128 5.42499 8.75 5.42499C7.59072 5.42499 6.62035 5.81388 5.83887 6.59165C5.0574 7.36943 4.66667 8.34165 4.66667 9.50832C4.66667 10.1815 4.80278 10.8613 5.075 11.5477C5.34722 12.2342 5.83333 13.0199 6.53333 13.9046C7.23333 14.7893 8.18611 15.8296 9.39167 17.0254C10.5972 18.2213 12.1333 19.6628 14 21.35Z" fill="#F55454"/>
</svg>
