<svg xmlns="http://www.w3.org/2000/svg"  viewBox="0 0 64 64" width="64px" height="64px" baseProfile="basic"><path fill="#9c34c2" d="M54,20c0-5.523-4.477-10-10-10H32H20c-5.523,0-10,4.477-10,10v24.008c0,5.523,4.477,10,10,10h12h12 c5.523,0,10-4.477,10-10V20z"/><ellipse cx="32" cy="61" opacity=".3" rx="20" ry="3"/><path fill="#fff" d="M14.01,12H14c-2.24,1.69-3.75,4.29-3.97,7.25C10.01,19.49,10,19.75,10,20v12 c2.761,0,5-2.239,5-5v-7c0-0.108,0.003-0.221,0.017-0.38c0.102-1.375,0.778-2.65,1.862-3.525c0.048-0.033,0.095-0.068,0.142-0.103 C17.881,15.343,18.911,15,20,15h5c2.761,0,5-2.239,5-5H20C17.75,10,15.68,10.74,14.01,12z" opacity=".3"/><path d="M54,44V22c-2.761,0-5,2.238-5,5v17c0,2.757-2.243,5-5,5h-5c-2.761,0-5,2.238-5,5h10 C49.523,54,54,49.523,54,44z" opacity=".15"/><path fill="none" stroke="#fff" stroke-linecap="round" stroke-linejoin="round" stroke-miterlimit="10" stroke-width="3" d="M13.5,23.5V20c0-0.153,0.005-0.312,0.018-0.459c0.135-1.809,1.003-3.46,2.396-4.594l0.204-0.152"/><path fill="#68e5fd" d="M41,25c-2.757,0-5-2.243-5-5v-0.5c0-1.381-1.119-2.5-2.5-2.5S31,18.119,31,19.5v17	c0,1.93-1.57,3.5-3.5,3.5S24,38.43,24,36.5c0-1.476,0.933-2.801,2.321-3.297c1.3-0.465,1.978-1.896,1.512-3.196	c-0.465-1.301-1.895-1.979-3.195-1.512C21.266,29.701,19,32.918,19,36.5c0,4.687,3.813,8.5,8.5,8.5s8.5-3.813,8.5-8.5v-7.853	C37.473,29.502,39.178,30,41,30c1.381,0,2.5-1.119,2.5-2.5S42.381,25,41,25z"/><path fill="#fd3c4f" d="M43,27c-2.757,0-5-2.243-5-5v-0.5c0-1.381-1.119-2.5-2.5-2.5S33,20.119,33,21.5v17	c0,1.93-1.57,3.5-3.5,3.5S26,40.43,26,38.5c0-1.476,0.933-2.801,2.321-3.297c1.3-0.465,1.978-1.896,1.512-3.196	c-0.465-1.301-1.895-1.979-3.195-1.512C23.266,31.701,21,34.918,21,38.5c0,4.687,3.813,8.5,8.5,8.5s8.5-3.813,8.5-8.5v-7.853	C39.473,31.502,41.178,32,43,32c1.381,0,2.5-1.119,2.5-2.5S44.381,27,43,27z"/><path fill="#fff" d="M38.627,24.373C37.071,23.525,36,21.894,36,20v-0.5c0-0.156-0.019-0.307-0.046-0.454	C35.807,19.019,35.656,19,35.5,19c-1.381,0-2.5,1.119-2.5,2.5v17c0,1.93-1.57,3.5-3.5,3.5c-1.486,0-2.75-0.934-3.257-2.243	C24.934,39.25,24,37.986,24,36.5c0-1.476,0.933-2.801,2.321-3.297c1.17-0.418,1.828-1.62,1.609-2.803	c-0.419-0.078-0.862-0.059-1.293,0.095C23.266,31.701,21,34.918,21,38.5c0,1.834,0.59,3.529,1.581,4.919	C23.971,44.41,25.666,45,27.5,45c4.687,0,8.5-3.813,8.5-8.5v-7.853C37.473,29.502,39.178,30,41,30c1.381,0,2.5-1.119,2.5-2.5	c0-0.156-0.019-0.307-0.046-0.454C43.307,27.019,43.156,27,43,27C41.106,27,39.475,25.929,38.627,24.373z"/></svg>