<svg width="20" height="24" viewBox="0 0 20 24" fill="none" xmlns="http://www.w3.org/2000/svg">
<path d="M7.16981 0C6.8566 0 6.60377 0.255238 6.60377 0.571429C6.60377 0.887619 6.8566 1.14286 7.16981 1.14286H12.8302C13.1434 1.14286 13.3962 0.887619 13.3962 0.571429C13.3962 0.255238 13.1434 0 12.8302 0H7.16981ZM2.45283 2.66667C1.1 2.66667 0 3.77714 0 5.14286C0 6.50857 1.1 7.61905 2.45283 7.61905H16.9811V19.619C16.9811 21.4038 15.5415 22.8571 13.7736 22.8571H6.22642C4.45849 22.8571 3.01887 21.4038 3.01887 19.619V9.71429C3.01887 9.3981 2.76604 9.14286 2.45283 9.14286C2.13962 9.14286 1.88679 9.3981 1.88679 9.71429V19.619C1.88679 22.0343 3.83396 24 6.22642 24H13.7736C16.166 24 18.1132 22.0343 18.1132 19.619V7.5506C19.1925 7.29155 20 6.31238 20 5.14286C20 3.77714 18.9 2.66667 17.5472 2.66667H2.45283ZM2.45283 3.80952H17.5472C18.2755 3.80952 18.8679 4.40762 18.8679 5.14286C18.8679 5.8781 18.2755 6.47619 17.5472 6.47619H2.45283C1.72453 6.47619 1.13208 5.8781 1.13208 5.14286C1.13208 4.40762 1.72453 3.80952 2.45283 3.80952ZM7.35849 10.2857C7.04528 10.2857 6.79245 10.541 6.79245 10.8571V19.619C6.79245 19.9352 7.04528 20.1905 7.35849 20.1905C7.6717 20.1905 7.92453 19.9352 7.92453 19.619V10.8571C7.92453 10.541 7.6717 10.2857 7.35849 10.2857ZM12.6415 10.2857C12.3283 10.2857 12.0755 10.541 12.0755 10.8571V19.619C12.0755 19.9352 12.3283 20.1905 12.6415 20.1905C12.9547 20.1905 13.2075 19.9352 13.2075 19.619V10.8571C13.2075 10.541 12.9547 10.2857 12.6415 10.2857Z" fill="#F55454"/>
</svg>
